<svg xmlns="http://www.w3.org/2000/svg" fill="none" viewBox="-0.5 -0.5 24 24" id="Keyboard-Hide--Streamline-Outlined----Material-Symbols.svg" height="24" width="24"><desc>Keyboard Hide Streamline Icon: https://streamlinehq.com</desc><path fill="#000000" d="M11.5 22.770000000000003L7.358275000000001 18.6001H15.6699L11.5 22.770000000000003ZM1.9205 16.008000000000003C1.4697000000000002 16.008000000000003 1.07525 15.83895 0.73715 15.500850000000002C0.39905 15.162749999999999 0.23 14.7683 0.23 14.3175V1.9205C0.23 1.4697000000000002 0.39905 1.07525 0.73715 0.73715C1.07525 0.39905 1.4697000000000002 0.23 1.9205 0.23H21.0795C21.5303 0.23 21.92475 0.39905 22.26285 0.73715C22.60095 1.07525 22.770000000000003 1.4697000000000002 22.770000000000003 1.9205V14.3175C22.770000000000003 14.7683 22.60095 15.162749999999999 22.26285 15.500850000000002C21.92475 15.83895 21.5303 16.008000000000003 21.0795 16.008000000000003H1.9205ZM1.9205 14.3175H21.0795V1.9205H1.9205V14.3175ZM7.1047 12.486125000000001H15.923475000000002V10.795625000000001H7.1047V12.486125000000001ZM3.5264750000000005 8.96425H5.216975000000001V7.27375H3.5264750000000005V8.96425ZM7.1047 8.96425H8.7952V7.27375H7.1047V8.96425ZM10.65475 8.96425H12.34525V7.27375H10.65475V8.96425ZM14.232975000000001 8.96425H15.923475000000002V7.27375H14.232975000000001V8.96425ZM17.783025000000002 8.96425H19.473525000000002V7.27375H17.783025000000002V8.96425ZM3.5264750000000005 5.442375H5.216975000000001V3.751875H3.5264750000000005V5.442375ZM7.1047 5.442375H8.7952V3.751875H7.1047V5.442375ZM10.65475 5.442375H12.34525V3.751875H10.65475V5.442375ZM14.232975000000001 5.442375H15.923475000000002V3.751875H14.232975000000001V5.442375ZM17.783025000000002 5.442375H19.473525000000002V3.751875H17.783025000000002V5.442375Z" stroke-width="1"></path></svg>